name baseline.mot
datacolumns 19
datarows 27
range 1.23166200000000 1.27500500000000
endheader
time	ground_force1_vx	ground_force1_vy	ground_force1_vz	ground_force1_px	ground_force1_py	ground_force1_pz	ground_force2_vx	ground_force2_vy	ground_force2_vz	ground_force2_px	ground_force2_py	ground_force2_pz	ground_torque1_x	ground_torque1_y	ground_torque1_z	ground_torque2_x	ground_torque2_y	ground_torque2_z	
1.23166200000000	63.97345700000000	792.65671599999996	66.76508300000000	0.14771600000000	0.00000000000000	0.11421300000000	0.00000000000000	0.00000000000000	0.00000000000000	0.00000000000000	0.00000000000000	0.00000000000000	0.00000000000000	4.22674800000000	0.00000000000000	0.00000000000000	0.00000000000000	0.00000000000000	
1.23333200000000	63.42425100000000	793.99742000000003	66.85963599999999	0.14685200000000	0.00000000000000	0.11417200000000	0.00000000000000	0.00000000000000	0.00000000000000	0.00000000000000	0.00000000000000	0.00000000000000	0.00000000000000	4.22929500000000	0.00000000000000	0.00000000000000	0.00000000000000	0.00000000000000	
1.23499700000000	62.87594500000000	795.20934799999998	66.95022299999999	0.14598100000000	0.00000000000000	0.11413300000000	0.00000000000000	0.00000000000000	0.00000000000000	0.00000000000000	0.00000000000000	0.00000000000000	0.00000000000000	4.23116100000000	0.00000000000000	0.00000000000000	0.00000000000000	0.00000000000000	
1.23666100000000	62.32818200000000	796.29235500000004	67.03619800000000	0.14510100000000	0.00000000000000	0.11409400000000	0.00000000000000	0.00000000000000	0.00000000000000	0.00000000000000	0.00000000000000	0.00000000000000	0.00000000000000	4.23222500000000	0.00000000000000	0.00000000000000	0.00000000000000	0.00000000000000	
1.23832500000000	61.78059900000000	797.24651500000004	67.11689699999999	0.14421100000000	0.00000000000000	0.11405600000000	0.00000000000000	0.00000000000000	0.00000000000000	0.00000000000000	0.00000000000000	0.00000000000000	0.00000000000000	4.23236300000000	0.00000000000000	0.00000000000000	0.00000000000000	0.00000000000000	
1.23999700000000	61.23283100000000	798.07212500000003	67.19164000000001	0.14331000000000	0.00000000000000	0.11401900000000	0.00000000000000	0.00000000000000	0.00000000000000	0.00000000000000	0.00000000000000	0.00000000000000	0.00000000000000	4.23145200000000	0.00000000000000	0.00000000000000	0.00000000000000	0.00000000000000	
1.24166300000000	60.68451400000000	798.76971100000003	67.25973900000000	0.14239800000000	0.00000000000000	0.11398300000000	0.00000000000000	0.00000000000000	0.00000000000000	0.00000000000000	0.00000000000000	0.00000000000000	0.00000000000000	4.22936900000000	0.00000000000000	0.00000000000000	0.00000000000000	0.00000000000000	
1.24333400000000	60.13529400000000	799.34002799999996	67.32050200000000	0.14147400000000	0.00000000000000	0.11394700000000	0.00000000000000	0.00000000000000	0.00000000000000	0.00000000000000	0.00000000000000	0.00000000000000	0.00000000000000	4.22599400000000	0.00000000000000	0.00000000000000	0.00000000000000	0.00000000000000	
1.24499400000000	59.58482800000000	799.78406299999995	67.37323800000000	0.14053800000000	0.00000000000000	0.11391300000000	0.00000000000000	0.00000000000000	0.00000000000000	0.00000000000000	0.00000000000000	0.00000000000000	0.00000000000000	4.22120800000000	0.00000000000000	0.00000000000000	0.00000000000000	0.00000000000000	
1.24666100000000	59.03278800000000	800.10303599999997	67.41726400000000	0.13958800000000	0.00000000000000	0.11387900000000	0.00000000000000	0.00000000000000	0.00000000000000	0.00000000000000	0.00000000000000	0.00000000000000	0.00000000000000	4.21489800000000	0.00000000000000	0.00000000000000	0.00000000000000	0.00000000000000	
1.24832700000000	58.47886500000000	800.29839900000002	67.45190700000001	0.13862500000000	0.00000000000000	0.11384500000000	0.00000000000000	0.00000000000000	0.00000000000000	0.00000000000000	0.00000000000000	0.00000000000000	0.00000000000000	4.20695500000000	0.00000000000000	0.00000000000000	0.00000000000000	0.00000000000000	
1.24999300000000	57.92277200000000	800.37183200000004	67.47651300000000	0.13764800000000	0.00000000000000	0.11381200000000	0.00000000000000	0.00000000000000	0.00000000000000	0.00000000000000	0.00000000000000	0.00000000000000	0.00000000000000	4.19727600000000	0.00000000000000	0.00000000000000	0.00000000000000	0.00000000000000	
1.25166400000000	57.36424800000000	800.32524599999999	67.49044700000000	0.13665700000000	0.00000000000000	0.11377900000000	0.00000000000000	0.00000000000000	0.00000000000000	0.00000000000000	0.00000000000000	0.00000000000000	0.00000000000000	4.18576400000000	0.00000000000000	0.00000000000000	0.00000000000000	0.00000000000000	
1.25332700000000	56.80305900000000	800.16077499999994	67.49310199999999	0.13565200000000	0.00000000000000	0.11374700000000	0.00000000000000	0.00000000000000	0.00000000000000	0.00000000000000	0.00000000000000	0.00000000000000	0.00000000000000	4.17233200000000	0.00000000000000	0.00000000000000	0.00000000000000	0.00000000000000	
1.25499400000000	56.23900100000000	799.88077199999998	67.48389899999999	0.13463200000000	0.00000000000000	0.11371400000000	0.00000000000000	0.00000000000000	0.00000000000000	0.00000000000000	0.00000000000000	0.00000000000000	0.00000000000000	4.15689900000000	0.00000000000000	0.00000000000000	0.00000000000000	0.00000000000000	
1.25666200000000	55.67190300000000	799.48780499999998	67.46229700000001	0.13359900000000	0.00000000000000	0.11368200000000	0.00000000000000	0.00000000000000	0.00000000000000	0.00000000000000	0.00000000000000	0.00000000000000	0.00000000000000	4.13939500000000	0.00000000000000	0.00000000000000	0.00000000000000	0.00000000000000	
1.25833000000000	55.10162800000000	798.98464899999999	67.42779000000000	0.13255100000000	0.00000000000000	0.11365000000000	0.00000000000000	0.00000000000000	0.00000000000000	0.00000000000000	0.00000000000000	0.00000000000000	0.00000000000000	4.11975900000000	0.00000000000000	0.00000000000000	0.00000000000000	0.00000000000000	
1.25999600000000	54.52807200000000	798.37428100000000	67.37991700000001	0.13149000000000	0.00000000000000	0.11361700000000	0.00000000000000	0.00000000000000	0.00000000000000	0.00000000000000	0.00000000000000	0.00000000000000	0.00000000000000	4.09794000000000	0.00000000000000	0.00000000000000	0.00000000000000	0.00000000000000	
1.26166300000000	53.95116800000000	797.65986999999996	67.31826200000000	0.13041500000000	0.00000000000000	0.11358500000000	0.00000000000000	0.00000000000000	0.00000000000000	0.00000000000000	0.00000000000000	0.00000000000000	0.00000000000000	4.07390000000000	0.00000000000000	0.00000000000000	0.00000000000000	0.00000000000000	
1.26333300000000	53.37088500000000	796.84476900000004	67.24245600000000	0.12932700000000	0.00000000000000	0.11355200000000	0.00000000000000	0.00000000000000	0.00000000000000	0.00000000000000	0.00000000000000	0.00000000000000	0.00000000000000	4.04761000000000	0.00000000000000	0.00000000000000	0.00000000000000	0.00000000000000	
1.26499700000000	52.78723000000000	795.93250599999999	67.15218500000000	0.12822700000000	0.00000000000000	0.11351900000000	0.00000000000000	0.00000000000000	0.00000000000000	0.00000000000000	0.00000000000000	0.00000000000000	0.00000000000000	4.01905200000000	0.00000000000000	0.00000000000000	0.00000000000000	0.00000000000000	
1.26666000000000	52.20024500000000	794.92677200000003	67.04718699999999	0.12711500000000	0.00000000000000	0.11348500000000	0.00000000000000	0.00000000000000	0.00000000000000	0.00000000000000	0.00000000000000	0.00000000000000	0.00000000000000	3.98822200000000	0.00000000000000	0.00000000000000	0.00000000000000	0.00000000000000	
1.26832900000000	51.61000900000000	793.83141400000000	66.92725600000000	0.12599200000000	0.00000000000000	0.11345100000000	0.00000000000000	0.00000000000000	0.00000000000000	0.00000000000000	0.00000000000000	0.00000000000000	0.00000000000000	3.95512600000000	0.00000000000000	0.00000000000000	0.00000000000000	0.00000000000000	
1.27000100000000	51.01663700000000	792.65041900000006	66.79224300000000	0.12485800000000	0.00000000000000	0.11341600000000	0.00000000000000	0.00000000000000	0.00000000000000	0.00000000000000	0.00000000000000	0.00000000000000	0.00000000000000	3.91978200000000	0.00000000000000	0.00000000000000	0.00000000000000	0.00000000000000	
1.27166400000000	50.42027900000000	791.38790500000005	66.64206100000000	0.12371500000000	0.00000000000000	0.11338000000000	0.00000000000000	0.00000000000000	0.00000000000000	0.00000000000000	0.00000000000000	0.00000000000000	0.00000000000000	3.88221900000000	0.00000000000000	0.00000000000000	0.00000000000000	0.00000000000000	
1.27333500000000	49.82111600000000	790.04811099999995	66.47668100000000	0.12256300000000	0.00000000000000	0.11334300000000	0.00000000000000	0.00000000000000	0.00000000000000	0.00000000000000	0.00000000000000	0.00000000000000	0.00000000000000	3.84247600000000	0.00000000000000	0.00000000000000	0.00000000000000	0.00000000000000	
1.27500500000000	49.21936400000000	788.63538000000005	66.29613500000001	0.12140300000000	0.00000000000000	0.11330500000000	0.00000000000000	0.00000000000000	0.00000000000000	0.00000000000000	0.00000000000000	0.00000000000000	0.00000000000000	3.80060500000000	0.00000000000000	0.00000000000000	0.00000000000000	0.00000000000000	
